# xmcd
#
# Track frame offsets: 
#        150
#        17255
#        34332
#        47807
#        63045
#        85212
#        99035
#        116820
#        136995
#        156310
#        180702
#        196767
#
# Disc length: 2879 seconds
#
# Revision: 5
# Processed by: cddbd v1.5.2PL0 Copyright (c) Steve Scherf et al.
# Submitted via: ExactAudioCopyFreeDBPlugin 1.0
#
DISCID=910b3d0c
DTITLE=Wide Mouth Mason - Wide Mouth Mason
DYEAR=1997
DGENRE=Rock
TTITLE0=My Old Self
TTITLE1=Midnight Rain
TTITLE2=Tom Robinson
TTITLE3=The River Song
TTITLE4=This Mourning
TTITLE5=The Preacherman's Song
TTITLE6=The Game
TTITLE7=All It Amounts To
TTITLE8=Corn Rows
TTITLE9=Sister Sally
TTITLE10=Tell Me
TTITLE11=Mary Mary
EXTD=YEAR: 1997
EXTT0=
EXTT1=
EXTT2=
EXTT3=
EXTT4=
EXTT5=
EXTT6=
EXTT7=
EXTT8=
EXTT9=
EXTT10=
EXTT11=
PLAYORDER=
